<svg xmlns="http://www.w3.org/2000/svg" width="178" height="177" fill="none"><path fill="#fff" d="M146.458 0H38.542C17.259 0 0 17.259 0 38.542v107.916C0 167.741 17.259 185 38.542 185h107.916C167.749 185 185 167.741 185 146.458V38.542C185 17.259 167.749 0 146.458 0M61.667 146.458H38.542V61.667h23.125zM50.104 51.893c-7.446 0-13.49-6.09-13.49-13.598s6.044-13.597 13.49-13.597 13.49 6.09 13.49 13.597c0 7.508-6.036 13.597-13.49 13.597m104.063 94.565h-23.125v-43.197c0-25.962-30.834-23.996-30.834 0v43.197H77.083V61.667h23.125v13.605c10.761-19.934 53.959-21.406 53.959 19.086z"/></svg>