<?xml version="1.0" encoding="UTF-8"?>
<svg id="Layer_1" xmlns="http://www.w3.org/2000/svg" version="1.1" viewBox="0 0 1080 1080">
  <!-- Generator: Adobe Illustrator 29.2.0, SVG Export Plug-In . SVG Version: 2.1.0 Build 108)  -->
  <g id="_x31_J52YL">
    <g>
      <path d="M697.3,297.6c48.9,10.1,82,43.2,92.1,92.1v303c-10,46.8-43.1,79.2-89.7,89.7h-75.1l93.4-191.4c4.5-21.8.2-35.8-13.4-52.3-22-26.7-87.4-93.4-113.9-113.9-5.8-4.4-12.1-7.6-18.8-10.3-56.7,4.1-126.1-7.3-181.3-.6-20,2.4-38.3,22.6-40,42.5-5.8,69,101,55.2,98.9,122.9-23.7,64.8-59.4,125-87,188.4-32.3-8.2-49.8-45-58-75v-303c7.4-44.8,46.1-86.3,92.1-92.1h300.6Z"/>
      <path d="M493.1,640c67.5-8.3,74.8,95.3,9,98.9-61.6,3.4-70.9-91.3-9-98.9Z"/>
      <path d="M611.8,526.1c72.2-2.8,61.2,117.8-12.9,96.4-54.3-15.7-42.2-94.3,12.9-96.4Z"/>
    </g>
  </g>
</svg>