<svg width="106" height="36" viewBox="0 0 106 36" fill="none" xmlns="http://www.w3.org/2000/svg">
<g id="Group 31894">
<g id="Clip path group">
<mask id="mask0_966_2193" style="mask-type:luminance" maskUnits="userSpaceOnUse" x="0" y="0" width="106" height="36">
<g id="clip-path">
<path id="Rectangle 15028" d="M105.013 0.707031H0.550781V35.2926H105.013V0.707031Z" fill="white"/>
</g>
</mask>
<g mask="url(#mask0_966_2193)">
<g id="Mous Logo">
<path id="Path 12088" d="M20.1886 23.9077L13.6432 12.2871L0.550781 35.5289H39.827L26.7346 12.2876L20.1886 23.9077Z" fill="black"/>
<path id="Path 12089" d="M49.4295 12.3145C43.1746 12.3145 38.1055 17.5109 38.1055 23.9204C38.1055 30.33 43.1771 35.5284 49.4295 35.5284C55.6819 35.5284 60.7541 30.3315 60.7541 23.9204C60.7541 17.5094 55.6834 12.3145 49.4295 12.3145Z" fill="black"/>
<path id="Path 12090" d="M63.5078 23.9183C63.5078 30.3293 68.5769 35.5263 74.8319 35.5263C81.0868 35.5263 86.1564 30.3298 86.1564 23.9183C86.1564 23.9153 63.5078 23.9153 63.5078 23.9183Z" fill="black"/>
<path id="Path 12091" d="M93.7065 12.311V0.707031C87.4495 0.707031 82.3789 5.90398 82.3789 12.3135C82.3789 18.7231 87.4389 23.9094 93.6858 23.92V35.524C99.9417 35.524 105.012 30.327 105.012 23.9175C105.012 17.5079 99.9518 12.3216 93.7065 12.311Z" fill="black"/>
<path id="Path 12092" d="M97.5314 0.707031C98.1995 0.71728 98.8364 0.991465 99.303 1.46971C99.7696 1.94795 100.028 2.5914 100.022 3.25953C100.03 3.5913 99.9717 3.92136 99.8504 4.23027C99.7291 4.53918 99.5472 4.8207 99.3154 5.05824C99.0837 5.29579 98.8067 5.48457 98.5009 5.61346C98.1951 5.74236 97.8666 5.80876 97.5347 5.80876C97.2028 5.80876 96.8743 5.74236 96.5685 5.61346C96.2627 5.48457 95.9857 5.29579 95.754 5.05824C95.5222 4.8207 95.3403 4.53918 95.219 4.23027C95.0977 3.92136 95.0394 3.5913 95.0476 3.25953C95.0398 2.59205 95.2968 1.94867 95.7623 1.47026C96.2278 0.991852 96.864 0.717411 97.5314 0.707031ZM97.5314 5.25423C97.7901 5.25134 98.0457 5.19739 98.2835 5.09548C98.5213 4.99358 98.7367 4.84572 98.9172 4.6604C99.0978 4.47508 99.2399 4.25593 99.3356 4.01553C99.4312 3.77514 99.4785 3.51822 99.4746 3.25953C99.4746 2.74363 99.2696 2.24886 98.9049 1.88407C98.5401 1.51927 98.0453 1.31434 97.5294 1.31434C97.0135 1.31434 96.5187 1.51927 96.1539 1.88407C95.7891 2.24886 95.5842 2.74363 95.5842 3.25953C95.5805 3.51852 95.6279 3.77571 95.7239 4.01631C95.8198 4.2569 95.9624 4.47618 96.1433 4.66153C96.3242 4.84688 96.54 4.99465 96.7782 5.09637C97.0164 5.19808 97.2724 5.25173 97.5314 5.25423ZM96.6048 2.08989C96.6045 2.07242 96.6077 2.05507 96.6142 2.03884C96.6207 2.02261 96.6303 2.00783 96.6425 1.99533C96.6547 1.98284 96.6693 1.97289 96.6853 1.96605C96.7014 1.95921 96.7187 1.95562 96.7362 1.95549H97.8073C97.9216 1.95507 98.0348 1.97776 98.1401 2.02218C98.2454 2.06661 98.3407 2.13186 98.4201 2.21401C98.4996 2.29617 98.5616 2.39354 98.6025 2.50027C98.6434 2.607 98.6623 2.7209 98.6581 2.83512C98.6649 3.00057 98.6217 3.16423 98.5341 3.30474C98.4465 3.44525 98.3186 3.5561 98.167 3.6228L98.4858 4.36046C98.4962 4.38052 98.5012 4.40292 98.5004 4.42549C98.4995 4.44806 98.4928 4.47003 98.481 4.48925C98.4691 4.50848 98.4525 4.52431 98.4327 4.53521C98.413 4.54611 98.3907 4.5517 98.3681 4.55144H97.9942C97.9661 4.54788 97.9396 4.53653 97.9176 4.51867C97.8957 4.50082 97.8791 4.47716 97.8699 4.45039L97.5668 3.65615H97.2071V4.41401C97.2074 4.43141 97.2043 4.44871 97.1979 4.4649C97.1915 4.4811 97.182 4.49586 97.1699 4.50836C97.1577 4.52085 97.1433 4.53082 97.1273 4.5377C97.1113 4.54457 97.0941 4.54821 97.0767 4.54841H96.7377C96.7202 4.54828 96.7029 4.54469 96.6869 4.53785C96.6708 4.53101 96.6562 4.52106 96.644 4.50857C96.6318 4.49607 96.6222 4.48129 96.6157 4.46506C96.6092 4.44883 96.606 4.43148 96.6063 4.41401L96.6048 2.08989ZM97.7335 3.13221C97.7715 3.13264 97.8092 3.12536 97.8443 3.1108C97.8795 3.09623 97.9112 3.0747 97.9378 3.04749C97.9643 3.02028 97.9851 2.98797 97.9988 2.95251C98.0125 2.91705 98.0188 2.87917 98.0175 2.84119C98.019 2.80316 98.0127 2.76523 97.9991 2.7297C97.9854 2.69417 97.9647 2.6618 97.9381 2.63456C97.9115 2.60733 97.8797 2.58579 97.8445 2.57128C97.8093 2.55677 97.7716 2.54958 97.7335 2.55016H97.1873V3.13221H97.7335Z" fill="black"/>
</g>
</g>
</g>
</g>
</svg>
