<svg width="139" height="34" viewBox="0 0 139 34" fill="none" xmlns="http://www.w3.org/2000/svg">
<g id="Clip path group">
<mask id="mask0_966_2203" style="mask-type:luminance" maskUnits="userSpaceOnUse" x="0" y="0" width="139" height="34">
<g id="clip0_94_1002">
<path id="Vector" d="M138.449 0.587891H0.0117188V33.4132H138.449V0.587891Z" fill="white"/>
</g>
</mask>
<g mask="url(#mask0_966_2203)">
<g id="Group">
<path id="Vector_2" d="M44.2584 13.0694L45.0547 11.402H40.5263V2.75977H39.9302L29.582 12.3368V13.0673H32.4249V25.876C32.4249 29.4377 34.5002 33.2573 39.1338 33.2573C42.4222 33.2573 44.0851 31.2763 44.7927 30.0753L44.4853 29.7596C43.97 30.0345 43.3941 30.1764 42.8101 30.1723C41.6548 30.1723 40.5263 29.06 40.5263 27.2069V13.0694H44.2584Z" fill="black"/>
<path id="Vector_3" d="M71.0271 0.587891C69.8492 0.588379 68.7192 1.0538 67.8824 1.88301C67.0457 2.71222 66.57 3.83822 66.5586 5.01632C66.5586 8.15296 69.8203 10.555 73.1211 8.99901C73.9589 8.60452 74.6262 7.92088 75.0004 7.0737C76.4735 3.75341 74.1464 0.587891 71.0271 0.587891Z" fill="black"/>
<path id="Vector_4" d="M66.3906 11.4023C66.3906 11.4023 67.5171 12.558 67.5171 15.5295V32.8202H75.2411V11.4023H66.3906Z" fill="black"/>
<path id="Vector_5" d="M61.3952 10.7598C56.543 10.7598 55.0204 16.0983 55.0204 16.0983V11.4015H46.4258C46.4258 11.4015 47.5523 12.5571 47.5523 15.5286V32.8194H55.2742V19.4722C55.2045 18.1482 55.5751 16.8384 56.3284 15.7475C56.9638 14.7611 58.2985 14.9426 58.5131 15.8651C58.804 17.159 59.7159 18.4218 61.6923 18.4424C64.1389 18.4692 65.6532 16.612 65.5233 14.4453C65.383 12.3219 63.6479 10.7598 61.3952 10.7598Z" fill="black"/>
<path id="Vector_6" d="M91.1233 11.4008C91.1233 11.4008 92.2497 12.5564 92.2497 15.528V27.9094C92.2497 27.9094 90.8222 30.231 88.8581 30.231C87.6884 30.231 86.4238 29.0444 86.4238 26.1905V11.4008H77.5156C77.5156 11.4008 78.642 12.5564 78.642 15.528V26.9478C78.642 29.3312 78.8958 30.5632 79.5766 31.5001C80.4266 32.6474 82.1719 33.413 83.9563 33.413C85.6583 33.413 87.6575 32.7754 89.3202 31.6693C90.0898 31.1843 92.0537 29.7626 92.2373 29.6304C92.19 31.9004 92.2518 32.8187 92.2518 32.8187H99.9799L100.036 11.3926H91.1233V11.4008Z" fill="black"/>
<path id="Vector_7" d="M137.515 12.6727C136.665 11.5253 134.92 10.7598 133.133 10.7598C128.142 10.7598 124.819 14.5815 124.819 14.5815C124.715 13.9137 124.46 13.2785 124.074 12.7243C123.226 11.5769 121.491 10.8279 119.712 10.8114C114.761 10.7639 112.13 13.5765 111.435 14.596C111.483 12.326 111.423 11.4077 111.423 11.4077H102.578C102.578 11.4077 103.62 12.4808 103.694 15.2253L103.637 32.8421L111.419 32.8318V16.3231C111.419 16.3231 112.846 14.0016 114.808 14.0016C115.98 14.0016 117.245 15.1903 117.245 18.0441V32.84H125.027L125.008 16.0652C125.437 15.4689 126.659 13.9893 128.231 13.9893C129.403 13.9893 130.668 15.1778 130.668 18.0298V32.84L138.395 32.8298L138.441 17.2249C138.441 14.8435 138.196 13.6096 137.515 12.6727Z" fill="black"/>
<path id="Vector_8" d="M14.5902 4.08203C11.7053 4.08203 8.88516 4.93769 6.48646 6.54081C4.08777 8.14391 2.21822 10.4225 1.11422 13.0884C0.010226 15.7543 -0.278629 18.6878 0.284183 21.5178C0.846995 24.3478 2.2362 26.9474 4.27612 28.9878C6.31603 31.0281 8.91506 32.4177 11.7445 32.9807C14.5739 33.5437 17.5067 33.2547 20.1721 32.1505C22.8374 31.0462 25.1153 29.1763 26.7181 26.777C28.3208 24.3777 29.1763 21.5571 29.1763 18.6715C29.1763 14.8022 27.6396 11.0913 24.9042 8.35519C22.1687 5.61913 18.4587 4.08203 14.5902 4.08203ZM21.9884 14.8414C21.644 16.286 20.6453 19.0657 19.8242 20.9517C18.1613 24.7941 16.4531 27.58 14.7676 29.2907C13.3234 30.7084 11.3964 31.8681 9.2281 30.9807C6.75236 29.9695 6.64508 27.8007 6.70284 25.7825C6.78949 23.4177 7.6787 20.2378 9.34982 16.3975C11.0209 12.5571 12.7354 9.73623 14.4066 8.05854C15.8506 6.63881 17.6786 5.38827 19.913 6.30244C22.8921 7.51995 23.0344 10.6483 21.9884 14.8414Z" fill="black"/>
</g>
</g>
</g>
</svg>
