<svg xmlns="http://www.w3.org/2000/svg" id="Layer_1" version="1.1" viewBox="36.8 318.97 1006.38 422.13">
  <!-- Generator: Adobe Illustrator 29.2.0, SVG Export Plug-In . SVG Version: 2.1.0 Build 108)  -->
  <g id="wSXupN.tif">
    <g>
      <path d="M454.4,741.1c-87.1-9.6-139.1-90.4-124.6-174.8,13.8-80.2,87.5-133.4,168.5-116.1,75.5,16.2,106.2,96.9,97.9,167.1l-170.8-1c-1,15.6,5.1,33.1,17,43.4,22.3,19.5,64.7,12.4,75.6-16.5l81.2,15c-13.5,38.8-48.8,66.7-87.9,77.3-8.9,2.4-19.8,4.8-29,5.5h-28ZM502.3,559.5c.6-21.7-8.1-43.2-32.4-44.9-29.1-2.1-43.7,17.5-43.5,44.9h75.9Z"/>
      <path d="M1042.8,366c.5,3.7.5,13.3,0,17-5.1,39.7-55.9,58.6-89.2,38.7-56.6-33.8-19.5-116,46.1-100.9,19.8,4.6,40.5,24.6,43.1,45.2Z"/>
      <path d="M724.1,340v135.7c41.3-43,109.2-47.1,149.9-.5,53.3,61.1,50.3,204.9-25,248.5-41.9,24.3-91.4,11.7-124.9-20.5v26.4l-1.5,1.5h-95.4v-373.1l96.9-18ZM765.9,523.9c-17.5,1.7-32,12.1-41.3,26.6l.3,87.6c8.9,12.7,21.9,23.9,38,25.9,78.4,10.1,78-147.2,3-140.1Z"/>
      <path d="M228.6,340v98.8c25.5-3.8,49.5-14,73.9-21.9l33.9,76.3c-32.8,19.7-70.7,29.5-107.6,38.5-1.6,19.7,9.6,37.7,29.6,41.5s7.6-.8,7.2,1.8c-4.7,7.7-34.6,68.6-38.5,69.3-10.9,2.1-29.6-2-40-6-40.1-15.4-57.2-53.4-55.4-94.8-31.6,1.6-63.5,1.1-94.9-3l19.9-88.3,75,.6v-94.8l96.9-18Z"/>
      <polygon points="1032.8 446.8 1032.8 736.1 935.9 736.1 935.9 464.7 1032.8 446.8"/>
      <path d="M293.5,642.3l32.6,69.8c-42.1,26.7-116,43.7-157.4,8.5-28.2-24-36.1-63.9-36.9-99.3,9.3,11.2,18.9,21.2,31.7,28.7,41.6,24.5,89.7,12.4,130.2-7.8Z"/>
    </g>
  </g>
</svg>