<svg width="584" height="232" viewBox="0 0 584 232" fill="black" xmlns="http://www.w3.org/2000/svg">
<path d="M422.603 38.4897C427.66 38.4897 452.288 0.449219 497.585 0.449219C542.002 0.449219 565.53 30.3539 565.53 86.8649C565.53 127.324 559.813 164.925 559.813 179.437C559.813 188.013 562.891 197.028 569.708 201.866C577.404 207.363 584 208.463 584 216.818C584 223.415 579.383 227.813 567.729 227.813C558.054 227.813 549.918 226.713 538.923 226.713C525.51 226.713 520.673 227.813 509.459 227.813C501.323 227.813 498.464 222.975 498.464 217.478C498.464 210.442 501.762 202.965 503.082 198.787C507.26 185.814 512.317 144.695 512.317 101.597C512.317 58.2796 496.485 37.6102 470.978 37.6102C451.628 37.6102 426.121 55.8608 426.121 87.3047C426.121 127.764 423.702 164.925 423.702 179.437C423.702 188.013 425.681 196.808 432.058 201.866C439.314 207.363 445.691 208.463 445.691 216.818C445.691 223.415 441.074 227.813 429.42 227.813C419.525 227.813 413.588 226.713 402.373 226.713C388.96 226.713 384.123 227.813 373.128 227.813C364.773 227.813 361.914 222.975 361.914 217.478C361.914 210.442 365.212 202.965 366.752 198.787C370.71 185.814 374.668 144.695 374.668 101.597C374.668 58.2796 359.495 37.6102 333.988 37.6102C312.879 37.6102 288.252 61.1381 288.252 83.3467V174.16C288.252 189.332 290.671 195.489 296.828 201.206C302.764 206.923 309.581 208.243 309.581 216.818C309.581 223.195 306.063 227.813 294.629 227.813C283.194 227.813 274.399 226.713 263.625 226.713C251.091 226.713 240.316 227.813 226.683 227.813C216.569 227.813 213.49 222.975 213.49 217.478C213.49 209.122 220.966 205.384 224.924 201.866C235.259 192.191 236.798 182.736 236.798 171.521V61.7977C236.798 50.3636 230.202 46.1858 223.165 43.3272C218.987 41.3482 214.37 38.4897 214.37 32.7726C214.37 23.0976 226.244 21.3385 240.536 15.1817C258.787 7.26573 264.504 2.42818 271.76 2.42818C278.357 2.42818 282.535 5.28672 284.734 14.7419C286.713 25.0766 287.592 36.2908 291.11 36.2908C295.288 36.2908 321.015 0.449219 360.375 0.449219C382.364 0.449219 400.834 8.80493 413.148 27.7152C417.766 34.3118 419.745 38.4897 422.603 38.4897Z" fill="black"/>
<path d="M0 120.508C0 56.3006 42.2184 0.449219 111.923 0.449219C156.78 0.449219 189.323 25.2965 189.323 56.7403C189.323 77.8495 173.491 90.1632 155.021 90.1632C144.686 90.1632 144.026 84.4461 140.948 71.6927C136.11 49.2642 124.676 28.3749 101.368 28.3749C73.2225 28.3749 51.8934 57.1801 51.8934 98.5189C51.8934 146.454 78.4998 184.055 124.896 184.055C162.936 184.055 179.208 159.428 187.124 146.674C189.103 144.036 191.742 140.957 194.6 140.957C199.658 140.957 200.977 146.674 200.977 153.491C200.977 185.814 167.334 231.551 106.865 231.551C43.5377 231.551 0 184.935 0 120.508Z" fill="black"/>
</svg>
