<?xml version="1.0" standalone="no"?>
<!DOCTYPE svg PUBLIC "-//W3C//DTD SVG 20010904//EN"
 "http://www.w3.org/TR/2001/REC-SVG-20010904/DTD/svg10.dtd">
<svg version="1.0" xmlns="http://www.w3.org/2000/svg"
 width="1416.000000pt" height="1416.000000pt" viewBox="0 0 1416.000000 1416.000000"
 preserveAspectRatio="xMidYMid meet">
<metadata>
Created by potrace 1.14, written by Peter Selinger 2001-2017
</metadata>
<g transform="translate(0.000000,1416.000000) scale(0.100000,-0.100000)"
fill="#000000" stroke="none">
<path d="M2410 9865 c-52 -7 -117 -16 -145 -20 -27 -4 -59 -9 -70 -10 -51 -8
-92 -16 -120 -25 -16 -5 -43 -12 -60 -15 -38 -8 -60 -13 -60 -15 0 -1 -8 -4
-50 -14 -70 -16 -252 -89 -383 -152 -142 -69 -353 -195 -360 -215 -2 -5 -8 -9
-14 -9 -5 0 -44 -28 -86 -62 -216 -175 -396 -370 -542 -588 -85 -128 -213
-354 -204 -363 3 -2 -2 -10 -11 -17 -8 -7 -15 -17 -15 -22 0 -6 -6 -24 -14
-41 -38 -89 -65 -156 -76 -192 -7 -22 -16 -44 -20 -50 -5 -5 -9 -14 -9 -20 -1
-5 -6 -26 -11 -45 -5 -19 -9 -37 -8 -40 1 -3 -4 -15 -10 -26 -6 -12 -14 -36
-17 -54 -3 -18 -10 -41 -16 -51 -5 -10 -8 -22 -8 -26 1 -4 0 -15 -4 -23 -7
-20 -45 -214 -52 -265 -33 -253 -39 -332 -38 -525 0 -180 10 -350 27 -450 2
-14 7 -47 11 -75 19 -149 111 -489 167 -615 11 -25 27 -61 35 -80 36 -82 77
-166 89 -180 7 -8 14 -19 15 -25 2 -10 13 -30 56 -97 12 -21 23 -41 23 -46 0
-4 8 -17 18 -28 9 -10 38 -50 64 -88 87 -127 278 -336 382 -417 16 -12 42 -35
58 -50 17 -15 62 -49 102 -75 39 -27 80 -57 90 -66 11 -10 23 -18 27 -18 4 0
38 -19 75 -41 56 -34 187 -100 299 -150 32 -14 159 -61 175 -64 8 -2 15 -4 15
-5 0 -1 7 -3 15 -5 8 -2 56 -15 106 -29 49 -14 106 -28 125 -31 18 -3 42 -8
52 -11 19 -6 28 -8 107 -19 25 -3 55 -8 66 -10 58 -13 198 -20 379 -20 203 0
283 5 410 25 88 14 104 17 192 34 153 31 442 138 576 213 33 18 60 33 62 33 5
0 136 82 168 105 145 104 203 152 316 266 95 94 122 125 165 184 16 22 32 42
36 45 4 3 28 37 53 75 26 39 50 75 54 80 16 22 76 137 118 225 25 53 84 220
78 220 -3 0 0 7 7 15 7 8 10 15 7 15 -4 0 0 18 8 40 8 22 12 40 10 40 -2 0 0
13 5 30 20 70 28 244 17 352 -16 147 -99 223 -197 181 -29 -13 -110 -87 -110
-101 0 -6 -4 -12 -8 -14 -5 -1 -30 -37 -56 -78 -102 -159 -165 -238 -291 -366
-126 -128 -288 -248 -415 -306 -118 -55 -266 -108 -301 -108 -8 0 -19 -3 -23
-7 -3 -4 -14 -8 -24 -9 -9 -2 -33 -6 -52 -10 -19 -4 -44 -8 -55 -9 -11 -2 -47
-6 -80 -11 -72 -10 -366 -10 -450 -1 -58 7 -80 10 -135 22 -14 3 -36 7 -49 10
-128 24 -379 124 -474 189 -21 14 -40 26 -43 26 -18 0 -175 129 -260 214 -147
147 -245 285 -342 482 -43 87 -109 249 -116 285 -2 13 -11 44 -19 69 -25 72
-36 121 -57 235 -4 28 -11 64 -14 80 -35 194 -41 624 -11 810 25 152 36 207
56 280 11 39 22 77 24 85 22 94 158 388 212 459 7 9 32 43 57 76 83 111 195
216 301 283 61 38 197 102 243 114 17 4 49 12 70 18 44 11 160 23 217 22 291
-4 507 -127 698 -395 89 -124 204 -405 242 -592 3 -11 21 -83 40 -160 20 -77
37 -149 40 -159 2 -11 9 -24 15 -30 5 -5 10 -16 10 -23 0 -37 85 -110 144
-124 60 -15 206 -14 274 2 26 6 58 13 72 15 27 5 68 19 117 40 17 8 34 14 37
14 10 0 145 89 177 117 46 40 51 46 79 82 14 18 30 38 36 44 6 7 23 33 37 58
68 116 107 270 107 422 -1 112 -1 116 -11 166 -6 24 -11 56 -13 70 -2 14 -12
51 -21 81 -73 240 -245 475 -469 640 -44 33 -86 65 -93 70 -7 6 -14 10 -17 10
-3 0 -21 11 -40 23 -19 13 -79 45 -133 71 -54 27 -106 52 -117 58 -10 5 -26
11 -35 13 -9 2 -29 9 -46 16 -16 7 -32 13 -35 14 -3 0 -27 8 -55 17 -51 18
-219 60 -290 74 -22 4 -42 8 -45 9 -3 0 -36 5 -75 9 -38 5 -83 11 -100 13 -70
11 -496 9 -585 -2z"/>
<path d="M8599 9876 c-2 -2 -29 -6 -59 -10 -187 -20 -354 -72 -565 -176 -132
-64 -330 -186 -385 -237 -14 -13 -30 -23 -37 -23 -6 0 -13 -4 -15 -8 -1 -5
-46 -44 -98 -88 -52 -43 -122 -104 -155 -135 -33 -31 -87 -81 -120 -112 -33
-31 -66 -57 -72 -57 -7 0 -13 -4 -13 -8 0 -4 -9 -8 -20 -9 -21 -2 -67 56 -74
93 -2 10 -10 39 -16 64 -7 25 -14 56 -16 70 -2 14 -8 52 -13 85 -15 85 -20
115 -27 155 -16 105 -58 212 -106 265 -51 59 -100 79 -200 82 -99 2 -151 -10
-266 -64 -43 -20 -79 -37 -82 -38 -20 -5 -166 -82 -168 -87 -2 -5 -9 -8 -16
-8 -7 0 -45 -16 -84 -35 -80 -39 -238 -105 -382 -160 -247 -94 -361 -164 -391
-241 -14 -37 -28 -122 -21 -129 3 -3 7 -13 8 -23 5 -37 48 -99 93 -132 25 -20
96 -60 156 -90 171 -83 256 -183 280 -330 8 -46 9 -2814 1 -2905 -9 -118 -30
-206 -69 -295 -14 -32 -78 -142 -92 -156 -5 -7 -21 -26 -35 -44 -36 -46 -63
-72 -168 -157 -166 -134 -212 -226 -187 -374 14 -84 87 -153 186 -176 42 -10
383 -9 624 2 237 11 542 11 740 0 283 -16 521 -12 590 9 94 28 154 86 173 166
12 55 5 145 -17 192 -26 58 -46 78 -169 172 -217 165 -273 255 -310 496 -4 25
-7 614 -7 1310 l0 1265 22 82 c71 260 261 518 512 698 27 19 53 35 60 35 6 0
11 4 11 8 0 9 144 83 195 100 35 12 56 19 70 22 6 1 20 6 33 11 59 23 259 34
342 19 216 -38 346 -105 479 -243 79 -83 123 -153 213 -339 30 -63 85 -262
104 -377 3 -18 8 -43 10 -55 3 -11 7 -46 10 -76 2 -30 7 -68 10 -83 13 -76 26
-637 14 -637 -3 0 -5 -78 -6 -173 -2 -284 -18 -611 -49 -982 -2 -27 -7 -84
-10 -125 -4 -41 -9 -86 -11 -100 -3 -14 -7 -51 -9 -83 -4 -57 -12 -119 -20
-167 -3 -14 -7 -49 -10 -79 -3 -30 -8 -57 -10 -60 -1 -3 -6 -28 -9 -56 -8 -73
-46 -243 -63 -285 -4 -8 -7 -17 -8 -20 -1 -3 -7 -18 -14 -35 -56 -135 -84
-261 -84 -378 0 -55 5 -78 29 -124 26 -50 37 -62 92 -90 l62 -32 178 4 c97 2
227 7 287 11 143 10 480 10 620 0 204 -14 456 -15 522 -1 152 33 230 112 237
242 2 29 0 55 -3 59 -3 3 -6 9 -7 12 -3 37 -21 76 -52 108 -38 41 -123 104
-140 104 -6 0 -12 3 -14 8 -2 4 -30 25 -63 47 -97 66 -150 128 -192 230 -49
116 -57 182 -57 420 1 174 4 304 20 670 15 385 24 716 29 1110 7 553 16 636
84 823 136 374 473 668 856 748 50 10 226 12 290 3 139 -20 206 -45 369 -136
27 -15 163 -149 196 -193 39 -52 90 -139 121 -208 53 -114 117 -326 133 -437
3 -22 8 -53 11 -70 8 -52 15 -117 22 -205 9 -106 8 -676 0 -865 -13 -269 -24
-464 -32 -540 -2 -22 -7 -76 -10 -120 -3 -43 -8 -93 -10 -110 -2 -16 -7 -61
-10 -98 -4 -37 -8 -78 -11 -90 -2 -12 -6 -47 -8 -77 -4 -55 -22 -195 -31 -239
-2 -13 -7 -49 -11 -80 -3 -31 -8 -59 -10 -63 -3 -4 -7 -24 -9 -45 -2 -21 -15
-90 -30 -153 -14 -63 -28 -125 -30 -137 -3 -12 -10 -35 -16 -50 -6 -16 -10
-29 -10 -31 1 -1 -6 -16 -14 -32 -9 -17 -13 -30 -11 -30 3 0 -2 -17 -10 -37
-9 -20 -17 -44 -19 -52 -2 -9 -10 -44 -19 -79 -9 -34 -18 -97 -20 -141 -5
-128 32 -206 121 -252 45 -23 58 -24 208 -24 88 1 223 5 300 10 173 11 528 11
695 -1 69 -4 206 -8 305 -9 162 0 187 2 251 23 149 49 213 160 181 316 -9 43
-42 86 -103 136 -30 25 -123 80 -134 80 -6 0 -10 5 -10 10 0 6 -5 10 -10 10
-16 0 -93 56 -139 100 -82 80 -143 205 -171 355 -9 49 -6 366 4 415 3 14 8 63
11 110 3 47 7 101 9 120 2 19 7 71 11 115 3 44 8 96 10 115 2 19 7 67 10 105
4 39 8 86 10 105 2 19 6 76 10 125 3 50 8 110 10 135 42 462 53 1256 20 1490
-2 14 -6 48 -10 75 -11 87 -39 239 -56 310 -22 93 -71 248 -96 305 -3 8 -7 17
-7 20 -1 3 -8 16 -16 30 -7 14 -13 26 -11 28 2 3 -47 102 -77 154 -113 198
-271 368 -452 483 -74 47 -216 117 -275 136 -22 6 -58 18 -80 25 -46 16 -126
34 -170 40 -16 2 -36 6 -42 9 -73 27 -505 27 -643 0 -36 -7 -94 -19 -100 -20
-3 -1 -23 -5 -45 -10 -22 -4 -46 -12 -52 -18 -7 -5 -13 -7 -13 -3 0 3 -12 1
-27 -5 -16 -6 -37 -13 -49 -15 -37 -7 -196 -74 -289 -121 -49 -26 -100 -51
-112 -57 -13 -6 -23 -14 -23 -18 0 -5 -4 -8 -10 -8 -21 0 -250 -158 -250 -172
0 -5 -4 -8 -10 -8 -5 0 -22 -10 -37 -22 -77 -65 -206 -180 -268 -239 -174
-167 -199 -185 -237 -176 -44 11 -69 42 -226 277 -20 30 -39 57 -42 60 -3 3
-18 23 -35 45 -56 76 -211 220 -300 281 -111 75 -277 156 -365 179 -8 2 -43
11 -77 20 -64 17 -86 21 -138 30 -16 3 -43 8 -60 11 -35 7 -379 16 -386 10z"/>
</g>
</svg>
